<mxfile host="app.diagrams.net" modified="2020-08-13T00:34:46.052Z" agent="5.0 (Windows NT 10.0; Win64; x64) AppleWebKit/537.36 (KHTML, like Gecko) Chrome/84.0.4147.125 Safari/537.36" etag="rYoYau0sFij9e2wtUdlv" version="13.6.2" type="github">
  <diagram id="6a731a19-8d31-9384-78a2-239565b7b9f0" name="Page-1">
    <mxGraphModel dx="2616" dy="1630" grid="1" gridSize="10" guides="1" tooltips="1" connect="1" arrows="1" fold="1" page="1" pageScale="1" pageWidth="1169" pageHeight="827" background="#ffffff" math="0" shadow="0">
      <root>
        <mxCell id="0" />
        <mxCell id="1" parent="0" />
        <mxCell id="1745" value="" style="edgeStyle=none;rounded=0;jumpStyle=none;html=1;shadow=0;labelBackgroundColor=none;startArrow=none;startFill=0;endArrow=classic;endFill=1;jettySize=auto;orthogonalLoop=1;strokeColor=#2F5B7C;strokeWidth=3;fontFamily=Helvetica;fontSize=16;fontColor=#23445D;spacing=5;" parent="1" target="1764" edge="1">
          <mxGeometry relative="1" as="geometry">
            <mxPoint x="570" y="389.5" as="sourcePoint" />
            <Array as="points">
              <mxPoint x="570" y="347" />
            </Array>
          </mxGeometry>
        </mxCell>
        <mxCell id="1746" value="" style="edgeStyle=none;rounded=0;jumpStyle=none;html=1;shadow=0;labelBackgroundColor=none;startArrow=none;startFill=0;endArrow=classic;endFill=1;jettySize=auto;orthogonalLoop=1;strokeColor=#2F5B7C;strokeWidth=3;fontFamily=Helvetica;fontSize=16;fontColor=#23445D;spacing=5;" parent="1" target="1771" edge="1">
          <mxGeometry relative="1" as="geometry">
            <mxPoint x="647" y="430.60666666666657" as="sourcePoint" />
            <Array as="points">
              <mxPoint x="710" y="431" />
            </Array>
          </mxGeometry>
        </mxCell>
        <mxCell id="1747" value="" style="edgeStyle=none;rounded=0;jumpStyle=none;html=1;shadow=0;labelBackgroundColor=none;startArrow=none;startFill=0;endArrow=classic;endFill=1;jettySize=auto;orthogonalLoop=1;strokeColor=#2F5B7C;strokeWidth=3;fontFamily=Helvetica;fontSize=16;fontColor=#23445D;spacing=5;" parent="1" target="1760" edge="1">
          <mxGeometry relative="1" as="geometry">
            <mxPoint x="570" y="463.5" as="sourcePoint" />
            <Array as="points">
              <mxPoint x="600" y="547" />
            </Array>
          </mxGeometry>
        </mxCell>
        <mxCell id="1748" value="" style="edgeStyle=none;rounded=0;jumpStyle=none;html=1;shadow=0;labelBackgroundColor=none;startArrow=none;startFill=0;endArrow=classic;endFill=1;jettySize=auto;orthogonalLoop=1;strokeColor=#2F5B7C;strokeWidth=3;fontFamily=Helvetica;fontSize=16;fontColor=#23445D;spacing=5;" parent="1" target="1753" edge="1">
          <mxGeometry relative="1" as="geometry">
            <mxPoint x="480" y="427" as="sourcePoint" />
            <mxPoint x="350" y="551.5" as="targetPoint" />
          </mxGeometry>
        </mxCell>
        <mxCell id="1750" value="" style="edgeStyle=none;rounded=1;jumpStyle=none;html=1;shadow=0;labelBackgroundColor=none;startArrow=none;startFill=0;jettySize=auto;orthogonalLoop=1;strokeColor=#E85642;strokeWidth=3;fontFamily=Helvetica;fontSize=14;fontColor=#FFFFFF;spacing=5;fontStyle=1;fillColor=#b0e3e6;" parent="1" source="1753" target="1756" edge="1">
          <mxGeometry relative="1" as="geometry" />
        </mxCell>
        <mxCell id="1751" value="" style="edgeStyle=none;rounded=1;jumpStyle=none;html=1;shadow=0;labelBackgroundColor=none;startArrow=none;startFill=0;jettySize=auto;orthogonalLoop=1;strokeColor=#E85642;strokeWidth=3;fontFamily=Helvetica;fontSize=14;fontColor=#FFFFFF;spacing=5;fontStyle=1;fillColor=#b0e3e6;" parent="1" source="1753" target="1755" edge="1">
          <mxGeometry relative="1" as="geometry" />
        </mxCell>
        <mxCell id="1752" value="" style="edgeStyle=none;rounded=1;jumpStyle=none;html=1;shadow=0;labelBackgroundColor=none;startArrow=none;startFill=0;jettySize=auto;orthogonalLoop=1;strokeColor=#E85642;strokeWidth=3;fontFamily=Helvetica;fontSize=14;fontColor=#FFFFFF;spacing=5;fontStyle=1;fillColor=#b0e3e6;" parent="1" source="1753" target="1754" edge="1">
          <mxGeometry relative="1" as="geometry" />
        </mxCell>
        <mxCell id="1753" value="DESEMPEÑO" style="rounded=1;whiteSpace=wrap;html=1;shadow=0;labelBackgroundColor=none;strokeColor=#A50040;strokeWidth=3;fillColor=#d80073;fontFamily=Helvetica;fontSize=21;fontColor=#ffffff;align=center;spacing=5;fontStyle=1;arcSize=7;perimeterSpacing=2;" parent="1" vertex="1">
          <mxGeometry x="200" y="617" width="150" height="60" as="geometry" />
        </mxCell>
        <mxCell id="1754" value="Cohesión" style="rounded=1;whiteSpace=wrap;html=1;shadow=0;labelBackgroundColor=none;strokeColor=#36393d;strokeWidth=3;fillColor=#ffcccc;fontFamily=Helvetica;fontSize=21;align=center;spacing=5;fontStyle=0;arcSize=7;perimeterSpacing=2;" parent="1" vertex="1">
          <mxGeometry x="110" y="727" width="150" height="60" as="geometry" />
        </mxCell>
        <mxCell id="1755" value="Motivación" style="rounded=1;whiteSpace=wrap;html=1;shadow=0;labelBackgroundColor=none;strokeColor=#36393d;strokeWidth=3;fillColor=#ffcccc;fontFamily=Helvetica;fontSize=21;align=center;spacing=5;fontStyle=0;arcSize=7;perimeterSpacing=2;" parent="1" vertex="1">
          <mxGeometry x="-10" y="627" width="150" height="60" as="geometry" />
        </mxCell>
        <mxCell id="1756" value="Cumplimiento" style="rounded=1;whiteSpace=wrap;html=1;shadow=0;labelBackgroundColor=none;strokeColor=#36393d;strokeWidth=3;fillColor=#ffcccc;fontFamily=Helvetica;fontSize=20;align=center;spacing=5;fontStyle=0;arcSize=7;perimeterSpacing=2;" parent="1" vertex="1">
          <mxGeometry x="70" y="537" width="150" height="60" as="geometry" />
        </mxCell>
        <mxCell id="1757" value="" style="edgeStyle=none;rounded=0;jumpStyle=none;html=1;shadow=0;labelBackgroundColor=none;startArrow=none;startFill=0;endArrow=classic;endFill=1;jettySize=auto;orthogonalLoop=1;strokeColor=#1699D3;strokeWidth=3;fontFamily=Helvetica;fontSize=14;fontColor=#FFFFFF;spacing=5;" parent="1" source="1760" target="1763" edge="1">
          <mxGeometry relative="1" as="geometry" />
        </mxCell>
        <mxCell id="1758" value="" style="edgeStyle=none;rounded=0;jumpStyle=none;html=1;shadow=0;labelBackgroundColor=none;startArrow=none;startFill=0;endArrow=classic;endFill=1;jettySize=auto;orthogonalLoop=1;strokeColor=#1699D3;strokeWidth=3;fontFamily=Helvetica;fontSize=14;fontColor=#FFFFFF;spacing=5;" parent="1" source="1760" target="1762" edge="1">
          <mxGeometry relative="1" as="geometry" />
        </mxCell>
        <mxCell id="1759" value="" style="edgeStyle=none;rounded=0;jumpStyle=none;html=1;shadow=0;labelBackgroundColor=none;startArrow=none;startFill=0;endArrow=classic;endFill=1;jettySize=auto;orthogonalLoop=1;strokeColor=#1699D3;strokeWidth=3;fontFamily=Helvetica;fontSize=14;fontColor=#FFFFFF;spacing=5;" parent="1" source="1760" target="1761" edge="1">
          <mxGeometry relative="1" as="geometry" />
        </mxCell>
        <mxCell id="1760" value="NORMATIVIDAD" style="rounded=1;whiteSpace=wrap;html=1;shadow=0;labelBackgroundColor=none;strokeColor=#B09500;strokeWidth=3;fontFamily=Helvetica;fontSize=20;align=center;spacing=5;fontStyle=1;arcSize=7;perimeterSpacing=2;fillColor=#e3c800;" parent="1" vertex="1">
          <mxGeometry x="590" y="647" width="180" height="60" as="geometry" />
        </mxCell>
        <mxCell id="1761" value="Reglas" style="rounded=1;whiteSpace=wrap;html=1;shadow=0;labelBackgroundColor=none;strokeColor=#36393d;strokeWidth=3;fillColor=#ffff88;fontFamily=Helvetica;fontSize=22;align=center;spacing=5;arcSize=7;perimeterSpacing=2;fontStyle=1;" parent="1" vertex="1">
          <mxGeometry x="820" y="757" width="150" height="60" as="geometry" />
        </mxCell>
        <mxCell id="1762" value="Subgrupos" style="rounded=1;whiteSpace=wrap;html=1;shadow=0;labelBackgroundColor=none;strokeColor=#36393d;strokeWidth=3;fillColor=#ffff88;fontFamily=Helvetica;fontSize=21;align=center;spacing=5;arcSize=7;perimeterSpacing=2;fontStyle=1" parent="1" vertex="1">
          <mxGeometry x="630" y="767" width="150" height="60" as="geometry" />
        </mxCell>
        <mxCell id="1763" value="Avances" style="rounded=1;whiteSpace=wrap;html=1;shadow=0;labelBackgroundColor=none;strokeColor=#36393d;strokeWidth=3;fillColor=#ffff88;fontFamily=Helvetica;fontSize=21;align=center;spacing=5;arcSize=7;perimeterSpacing=2;fontStyle=1" parent="1" vertex="1">
          <mxGeometry x="440" y="747" width="150" height="60" as="geometry" />
        </mxCell>
        <mxCell id="1764" value="FORMACIÓN" style="rounded=1;whiteSpace=wrap;html=1;shadow=0;labelBackgroundColor=none;strokeColor=#C73500;strokeWidth=3;fillColor=#fa6800;fontFamily=Helvetica;fontSize=20;align=center;spacing=5;fontStyle=1;arcSize=7;perimeterSpacing=2;" parent="1" vertex="1">
          <mxGeometry x="495" y="227.5" width="150" height="60" as="geometry" />
        </mxCell>
        <mxCell id="1765" value="Ansiedad" style="rounded=1;whiteSpace=wrap;html=1;shadow=0;labelBackgroundColor=none;strokeColor=none;strokeWidth=3;fillColor=#f5af58;fontFamily=Helvetica;fontSize=22;align=center;spacing=5;arcSize=7;perimeterSpacing=2;" parent="1" vertex="1">
          <mxGeometry x="695" y="137.5" width="150" height="60" as="geometry" />
        </mxCell>
        <mxCell id="1766" value="" style="edgeStyle=none;rounded=0;jumpStyle=none;html=1;shadow=0;labelBackgroundColor=none;startArrow=none;startFill=0;endArrow=classic;endFill=1;jettySize=auto;orthogonalLoop=1;strokeColor=#F08705;strokeWidth=3;fontFamily=Helvetica;fontSize=14;fontColor=#FFFFFF;spacing=5;" parent="1" source="1764" target="1765" edge="1">
          <mxGeometry relative="1" as="geometry" />
        </mxCell>
        <mxCell id="1767" value="Incetidumbre" style="rounded=1;whiteSpace=wrap;html=1;shadow=0;labelBackgroundColor=none;strokeColor=none;strokeWidth=3;fillColor=#f5af58;fontFamily=Helvetica;fontSize=21;align=center;spacing=5;arcSize=7;perimeterSpacing=2;" parent="1" vertex="1">
          <mxGeometry x="520" y="67" width="150" height="60" as="geometry" />
        </mxCell>
        <mxCell id="1768" value="" style="edgeStyle=none;rounded=0;jumpStyle=none;html=1;shadow=0;labelBackgroundColor=none;startArrow=none;startFill=0;endArrow=classic;endFill=1;jettySize=auto;orthogonalLoop=1;strokeColor=#F08705;strokeWidth=3;fontFamily=Helvetica;fontSize=14;fontColor=#FFFFFF;spacing=5;" parent="1" source="1764" target="1767" edge="1">
          <mxGeometry relative="1" as="geometry" />
        </mxCell>
        <mxCell id="1769" value="Expectativas" style="rounded=1;whiteSpace=wrap;html=1;shadow=0;labelBackgroundColor=none;strokeColor=none;strokeWidth=3;fillColor=#f5af58;fontFamily=Helvetica;fontSize=20;align=center;spacing=5;arcSize=7;perimeterSpacing=2;fontStyle=1;" parent="1" vertex="1">
          <mxGeometry x="340" y="117" width="150" height="60" as="geometry" />
        </mxCell>
        <mxCell id="1770" value="" style="edgeStyle=none;rounded=0;jumpStyle=none;html=1;shadow=0;labelBackgroundColor=none;startArrow=none;startFill=0;endArrow=classic;endFill=1;jettySize=auto;orthogonalLoop=1;strokeColor=#F08705;strokeWidth=3;fontFamily=Helvetica;fontSize=14;fontColor=#FFFFFF;spacing=5;" parent="1" source="1764" target="1769" edge="1">
          <mxGeometry relative="1" as="geometry" />
        </mxCell>
        <mxCell id="1771" value="TORMENTA" style="rounded=1;whiteSpace=wrap;html=1;shadow=0;labelBackgroundColor=none;strokeColor=#005700;strokeWidth=3;fillColor=#008a00;fontFamily=Helvetica;fontSize=21;fontColor=#ffffff;align=center;spacing=5;fontStyle=1;arcSize=7;perimeterSpacing=2;" parent="1" vertex="1">
          <mxGeometry x="845" y="401.4999999999999" width="150" height="60" as="geometry" />
        </mxCell>
        <mxCell id="1772" value="Carencia valores" style="rounded=1;whiteSpace=wrap;html=1;shadow=0;labelBackgroundColor=none;strokeColor=#2D7600;strokeWidth=3;fillColor=#60a917;fontFamily=Helvetica;fontSize=18;align=center;spacing=5;fontStyle=0;arcSize=7;perimeterSpacing=2;fontColor=#ffffff;" parent="1" vertex="1">
          <mxGeometry x="875" y="551.5" width="150" height="60" as="geometry" />
        </mxCell>
        <mxCell id="1773" value="" style="edgeStyle=none;rounded=1;jumpStyle=none;html=1;shadow=0;labelBackgroundColor=none;startArrow=none;startFill=0;jettySize=auto;orthogonalLoop=1;strokeColor=#12AAB5;strokeWidth=3;fontFamily=Helvetica;fontSize=14;fontColor=#FFFFFF;spacing=5;fontStyle=1;fillColor=#b0e3e6;" parent="1" source="1771" target="1772" edge="1">
          <mxGeometry relative="1" as="geometry" />
        </mxCell>
        <mxCell id="1774" value="Dif, pensamiento" style="rounded=1;whiteSpace=wrap;html=1;shadow=0;labelBackgroundColor=none;strokeColor=#2D7600;strokeWidth=3;fillColor=#60a917;fontFamily=Helvetica;fontSize=18;fontColor=#ffffff;align=center;spacing=5;fontStyle=0;arcSize=7;perimeterSpacing=2;" parent="1" vertex="1">
          <mxGeometry x="1005" y="461.5" width="150" height="60" as="geometry" />
        </mxCell>
        <mxCell id="1775" value="" style="edgeStyle=none;rounded=1;jumpStyle=none;html=1;shadow=0;labelBackgroundColor=none;startArrow=none;startFill=0;jettySize=auto;orthogonalLoop=1;strokeColor=#12AAB5;strokeWidth=3;fontFamily=Helvetica;fontSize=14;fontColor=#FFFFFF;spacing=5;fontStyle=1;fillColor=#b0e3e6;" parent="1" source="1771" target="1774" edge="1">
          <mxGeometry relative="1" as="geometry" />
        </mxCell>
        <mxCell id="1776" value="Conflictos" style="rounded=1;whiteSpace=wrap;html=1;shadow=0;labelBackgroundColor=none;strokeColor=#2D7600;strokeWidth=3;fillColor=#60a917;fontFamily=Helvetica;fontSize=21;fontColor=#ffffff;align=center;spacing=5;fontStyle=0;arcSize=7;perimeterSpacing=2;" parent="1" vertex="1">
          <mxGeometry x="1005" y="351.5" width="150" height="60" as="geometry" />
        </mxCell>
        <mxCell id="1777" value="" style="edgeStyle=none;rounded=1;jumpStyle=none;html=1;shadow=0;labelBackgroundColor=none;startArrow=none;startFill=0;jettySize=auto;orthogonalLoop=1;strokeColor=#12AAB5;strokeWidth=3;fontFamily=Helvetica;fontSize=14;fontColor=#FFFFFF;spacing=5;fontStyle=1;fillColor=#b0e3e6;" parent="1" source="1771" target="1776" edge="1">
          <mxGeometry relative="1" as="geometry" />
        </mxCell>
        <mxCell id="1778" value="Diferencias" style="rounded=1;whiteSpace=wrap;html=1;shadow=0;labelBackgroundColor=none;strokeColor=#2D7600;strokeWidth=3;fillColor=#60a917;fontFamily=Helvetica;fontSize=21;fontColor=#ffffff;align=center;spacing=5;fontStyle=0;arcSize=7;perimeterSpacing=2;" parent="1" vertex="1">
          <mxGeometry x="875" y="271.5" width="150" height="60" as="geometry" />
        </mxCell>
        <mxCell id="1779" value="" style="edgeStyle=none;rounded=1;jumpStyle=none;html=1;shadow=0;labelBackgroundColor=none;startArrow=none;startFill=0;jettySize=auto;orthogonalLoop=1;strokeColor=#12AAB5;strokeWidth=3;fontFamily=Helvetica;fontSize=14;fontColor=#FFFFFF;spacing=5;fontStyle=1;fillColor=#b0e3e6;" parent="1" source="1771" target="1778" edge="1">
          <mxGeometry relative="1" as="geometry" />
        </mxCell>
        <mxCell id="UOxdSH6ng1Q41oucrjyX-1782" value="e" style="shape=mxgraph.cisco.people.androgenous_person;html=1;dashed=0;fillColor=#036897;strokeColor=#ffffff;strokeWidth=2;verticalLabelPosition=bottom;verticalAlign=top" vertex="1" parent="1">
          <mxGeometry x="440" y="351.5" width="230" height="175.5" as="geometry" />
        </mxCell>
        <mxCell id="UOxdSH6ng1Q41oucrjyX-1786" value="" style="edgeStyle=none;rounded=0;jumpStyle=none;html=1;shadow=0;labelBackgroundColor=none;startArrow=none;startFill=0;endArrow=classic;endFill=1;jettySize=auto;orthogonalLoop=1;strokeColor=#2F5B7C;strokeWidth=3;fontFamily=Helvetica;fontSize=16;fontColor=#23445D;spacing=5;" edge="1" parent="1">
          <mxGeometry relative="1" as="geometry">
            <mxPoint x="380" y="386" as="sourcePoint" />
            <mxPoint x="300" y="351.5" as="targetPoint" />
            <Array as="points">
              <mxPoint x="460" y="417" />
            </Array>
          </mxGeometry>
        </mxCell>
        <mxCell id="UOxdSH6ng1Q41oucrjyX-1787" value="SUSPENSIÓN" style="rounded=1;whiteSpace=wrap;html=1;shadow=0;labelBackgroundColor=none;strokeWidth=3;fillColor=#6a00ff;fontFamily=Helvetica;fontSize=20;align=center;spacing=5;fontStyle=1;arcSize=7;perimeterSpacing=2;strokeColor=#3700CC;fontColor=#ffffff;" vertex="1" parent="1">
          <mxGeometry x="150" y="306.5" width="150" height="60" as="geometry" />
        </mxCell>
        <mxCell id="UOxdSH6ng1Q41oucrjyX-1790" value="Cierre" style="rounded=1;whiteSpace=wrap;html=1;shadow=0;labelBackgroundColor=none;strokeColor=#9673a6;strokeWidth=3;fillColor=#e1d5e7;fontFamily=Helvetica;fontSize=21;align=center;spacing=5;arcSize=7;perimeterSpacing=2;fontStyle=1" vertex="1" parent="1">
          <mxGeometry x="-30" y="401.5" width="150" height="60" as="geometry" />
        </mxCell>
        <mxCell id="UOxdSH6ng1Q41oucrjyX-1791" value="Evaluación" style="rounded=1;whiteSpace=wrap;html=1;shadow=0;labelBackgroundColor=none;strokeColor=#9673a6;strokeWidth=3;fillColor=#e1d5e7;fontFamily=Helvetica;fontSize=23;align=center;spacing=5;arcSize=7;perimeterSpacing=2;" vertex="1" parent="1">
          <mxGeometry x="-80" y="287.5" width="150" height="60" as="geometry" />
        </mxCell>
        <mxCell id="UOxdSH6ng1Q41oucrjyX-1792" value="Retroalimentación" style="rounded=1;whiteSpace=wrap;html=1;shadow=0;labelBackgroundColor=none;strokeColor=#9673a6;strokeWidth=3;fillColor=#e1d5e7;fontFamily=Helvetica;fontSize=18;align=center;spacing=5;arcSize=7;perimeterSpacing=2;" vertex="1" parent="1">
          <mxGeometry x="80" y="197.5" width="150" height="60" as="geometry" />
        </mxCell>
        <mxCell id="UOxdSH6ng1Q41oucrjyX-1798" value="Etapas" style="rounded=1;whiteSpace=wrap;html=1;shadow=0;labelBackgroundColor=none;strokeColor=#36393d;strokeWidth=3;fillColor=#cce5ff;fontFamily=Helvetica;fontSize=23;align=center;spacing=5;arcSize=7;perimeterSpacing=2;fontStyle=1" vertex="1" parent="1">
          <mxGeometry x="540" y="481.5" width="130" height="40" as="geometry" />
        </mxCell>
        <mxCell id="UOxdSH6ng1Q41oucrjyX-1799" value="ETAPAS QUE ATRAVIESA EL GRUPO VIRTUAL" style="rounded=1;whiteSpace=wrap;html=1;shadow=0;labelBackgroundColor=none;strokeWidth=3;fillColor=#6a00ff;fontFamily=Helvetica;fontSize=24;align=center;spacing=5;fontStyle=1;arcSize=7;perimeterSpacing=2;strokeColor=#3700CC;fontColor=#ffffff;" vertex="1" parent="1">
          <mxGeometry x="292.5" y="-110" width="555" height="60" as="geometry" />
        </mxCell>
        <mxCell id="UOxdSH6ng1Q41oucrjyX-1800" value="MAPA MENTAL" style="rounded=1;whiteSpace=wrap;html=1;shadow=0;labelBackgroundColor=none;strokeColor=#9673a6;strokeWidth=3;fillColor=#e1d5e7;fontFamily=Helvetica;fontSize=22;align=center;spacing=5;arcSize=7;perimeterSpacing=2;fontStyle=1" vertex="1" parent="1">
          <mxGeometry x="420" y="-30" width="250" height="60" as="geometry" />
        </mxCell>
        <mxCell id="UOxdSH6ng1Q41oucrjyX-1801" value="" style="shape=image;html=1;verticalAlign=top;verticalLabelPosition=bottom;labelBackgroundColor=#ffffff;imageAspect=0;aspect=fixed;image=https://cdn3.iconfinder.com/data/icons/e-learning-outline-distance-education/512/E-learning_evaluate-128.png;strokeColor=#6600CC;fillColor=#000099;fontSize=22;fontColor=#000000;" vertex="1" parent="1">
          <mxGeometry x="-160" y="287.5" width="57" height="57" as="geometry" />
        </mxCell>
        <mxCell id="UOxdSH6ng1Q41oucrjyX-1803" value="" style="shape=image;html=1;verticalAlign=top;verticalLabelPosition=bottom;labelBackgroundColor=#ffffff;imageAspect=0;aspect=fixed;image=https://cdn1.iconfinder.com/data/icons/hawcons/32/699843-icon-4-cloud-rain-128.png;strokeColor=#6600CC;fillColor=#000099;fontSize=22;fontColor=#000000;" vertex="1" parent="1">
          <mxGeometry x="770" y="306.5" width="105" height="105" as="geometry" />
        </mxCell>
        <mxCell id="UOxdSH6ng1Q41oucrjyX-1804" value="" style="outlineConnect=0;fontColor=#232F3E;gradientColor=none;fillColor=#BC1356;strokeColor=none;dashed=0;verticalLabelPosition=bottom;verticalAlign=top;align=center;html=1;fontSize=12;fontStyle=0;aspect=fixed;pointerEvents=1;shape=mxgraph.aws4.checklist_performance;" vertex="1" parent="1">
          <mxGeometry x="360" y="609" width="78" height="78" as="geometry" />
        </mxCell>
        <mxCell id="UOxdSH6ng1Q41oucrjyX-1815" style="edgeStyle=orthogonalEdgeStyle;rounded=0;orthogonalLoop=1;jettySize=auto;html=1;fontSize=23;fontColor=#000000;" edge="1" parent="1" source="UOxdSH6ng1Q41oucrjyX-1805">
          <mxGeometry relative="1" as="geometry">
            <mxPoint x="460" y="200" as="targetPoint" />
          </mxGeometry>
        </mxCell>
        <mxCell id="UOxdSH6ng1Q41oucrjyX-1805" value="" style="shape=image;html=1;verticalAlign=top;verticalLabelPosition=bottom;labelBackgroundColor=#ffffff;imageAspect=0;aspect=fixed;image=https://cdn0.iconfinder.com/data/icons/business-management-2-14/256/b-84-128.png;strokeColor=#6600CC;fillColor=#000099;fontSize=22;fontColor=#000000;" vertex="1" parent="1">
          <mxGeometry x="420" y="227.5" width="68" height="68" as="geometry" />
        </mxCell>
        <mxCell id="UOxdSH6ng1Q41oucrjyX-1808" value="" style="shape=image;html=1;verticalAlign=top;verticalLabelPosition=bottom;labelBackgroundColor=#ffffff;imageAspect=0;aspect=fixed;image=https://cdn0.iconfinder.com/data/icons/sport-achievment-badges/128/sport_badges-11-128.png;strokeColor=#6600CC;fillColor=#000099;fontSize=22;fontColor=#000000;" vertex="1" parent="1">
          <mxGeometry x="183.5" y="375" width="76.5" height="76.5" as="geometry" />
        </mxCell>
        <mxCell id="UOxdSH6ng1Q41oucrjyX-1810" value="" style="outlineConnect=0;fontColor=#232F3E;gradientColor=none;fillColor=#277116;strokeColor=none;dashed=0;verticalLabelPosition=bottom;verticalAlign=top;align=center;html=1;fontSize=12;fontStyle=0;aspect=fixed;pointerEvents=1;shape=mxgraph.aws4.notebook;" vertex="1" parent="1">
          <mxGeometry x="788.5" y="629" width="68" height="78" as="geometry" />
        </mxCell>
        <mxCell id="UOxdSH6ng1Q41oucrjyX-1814" value="" style="edgeStyle=none;rounded=0;jumpStyle=none;html=1;shadow=0;labelBackgroundColor=none;startArrow=none;startFill=0;endArrow=classic;endFill=1;jettySize=auto;orthogonalLoop=1;strokeColor=#432D57;strokeWidth=3;fontFamily=Helvetica;fontSize=14;fontColor=#FFFFFF;spacing=5;fillColor=#76608a;" edge="1" parent="1">
          <mxGeometry relative="1" as="geometry">
            <mxPoint x="177" y="300" as="sourcePoint" />
            <mxPoint x="177" y="258" as="targetPoint" />
            <Array as="points">
              <mxPoint x="177" y="298" />
            </Array>
          </mxGeometry>
        </mxCell>
        <mxCell id="UOxdSH6ng1Q41oucrjyX-1817" value="" style="edgeStyle=none;rounded=0;jumpStyle=none;html=1;shadow=0;labelBackgroundColor=none;startArrow=none;startFill=0;endArrow=classic;endFill=1;jettySize=auto;orthogonalLoop=1;strokeColor=#432D57;strokeWidth=3;fontFamily=Helvetica;fontSize=14;fontColor=#FFFFFF;spacing=5;fillColor=#76608a;" edge="1" parent="1">
          <mxGeometry relative="1" as="geometry">
            <mxPoint x="143" y="368" as="sourcePoint" />
            <mxPoint x="65" y="398" as="targetPoint" />
            <Array as="points">
              <mxPoint x="113" y="378" />
            </Array>
          </mxGeometry>
        </mxCell>
        <mxCell id="UOxdSH6ng1Q41oucrjyX-1818" value="" style="edgeStyle=none;rounded=0;jumpStyle=none;html=1;shadow=0;labelBackgroundColor=none;startArrow=none;startFill=0;endArrow=classic;endFill=1;jettySize=auto;orthogonalLoop=1;strokeColor=#432D57;strokeWidth=3;fontFamily=Helvetica;fontSize=14;fontColor=#FFFFFF;spacing=5;fillColor=#76608a;" edge="1" parent="1">
          <mxGeometry relative="1" as="geometry">
            <mxPoint x="150" y="318.5" as="sourcePoint" />
            <mxPoint x="80" y="319" as="targetPoint" />
          </mxGeometry>
        </mxCell>
      </root>
    </mxGraphModel>
  </diagram>
</mxfile>
